<svg xmlns="http://www.w3.org/2000/svg" shape-rendering="geometricPrecision" text-rendering="geometricPrecision" image-rendering="optimizeQuality" fill-rule="evenodd" clip-rule="evenodd" viewBox="0 0 380 511.7"><path fill-rule="nonzero" d="M26.18 0h221.14c3.1 0 5.85 1.51 7.56 3.84l122.88 145.08a9.27 9.27 0 0 1 2.21 6.05l.03 330.55c0 7.13-2.98 13.68-7.72 18.42l-.03.04c-4.75 4.74-11.29 7.72-18.43 7.72H26.18c-7.13 0-13.69-2.96-18.45-7.71l-.03-.04C2.97 499.22 0 492.69 0 485.52V26.18C0 19 2.95 12.46 7.68 7.72l.04-.04C12.46 2.95 19 0 26.18 0zm335.06 164.7c-134.78-5.58-134.35-17.38-129.82-134.02l.45-11.92H26.18c-2.05 0-3.91.83-5.26 2.16a7.482 7.482 0 0 0-2.16 5.26v459.34c0 2.02.84 3.88 2.18 5.23 1.36 1.35 3.22 2.19 5.24 2.19h327.64c2.01 0 3.86-.85 5.22-2.2 1.35-1.36 2.2-3.21 2.2-5.22V164.7zM250.25 27.32l-.15 4.01c-3.73 96.04-4.22 109.01 100.23 114.16L250.25 27.32z"/></svg>